<svg width="26" height="26" viewBox="0 0 26 26" fill="none" xmlns="http://www.w3.org/2000/svg">
<rect width="26" height="26" rx="13" fill="#FFE9E6"/>
<path d="M8.31518 18.9934H8.23711C8.0847 18.9869 7.93378 18.9602 7.78816 18.9142L7.63852 18.8614C7.19717 18.6777 6.84368 18.3267 6.65299 17.883C6.46229 17.4392 6.44938 16.9376 6.61701 16.4844L6.65605 16.3721L11.3862 7.96692C11.5031 7.75168 11.6606 7.56198 11.8498 7.40861C12.0391 7.25524 12.2562 7.14124 12.4889 7.07316C12.7216 7.00508 12.9652 6.98422 13.2059 7.01182C13.4465 7.03943 13.6794 7.11496 13.8912 7.23403C14.1561 7.38202 14.3799 7.59547 14.5419 7.85465L14.6004 7.96031L19.3631 16.425C19.4912 16.7417 19.5304 17.0882 19.4764 17.4261C19.4225 17.7641 19.2774 18.0803 19.0573 18.3397C18.7497 18.7094 18.3144 18.9456 17.8406 19H8.31518V18.9934ZM17.7105 18.003C17.9383 17.9893 18.1518 17.8856 18.3051 17.714C18.4583 17.5424 18.5392 17.3167 18.5303 17.0853V16.9202V16.8541L13.7871 8.4423C13.676 8.23984 13.4906 8.09015 13.2712 8.02584C13.0518 7.96153 12.8163 7.98779 12.6159 8.09894C12.5011 8.16506 12.4013 8.25508 12.3232 8.36307L12.2711 8.44891L7.56696 16.8013C7.48109 17.0168 7.48286 17.258 7.57189 17.4721C7.66092 17.6862 7.82993 17.8557 8.04192 17.9436L8.23059 17.9965H17.743L17.7105 18.003ZM12.5053 15.7581C12.5053 15.6268 12.5567 15.5008 12.6483 15.4079C12.7398 15.3151 12.8639 15.2629 12.9933 15.2629C13.0571 15.2621 13.1204 15.274 13.1796 15.2982C13.2387 15.3223 13.2926 15.3582 13.338 15.4037C13.3834 15.4491 13.4194 15.5033 13.444 15.563C13.4686 15.6227 13.4813 15.6868 13.4813 15.7515C13.4813 15.8829 13.4299 16.0088 13.3384 16.1016C13.2469 16.1945 13.1227 16.2467 12.9933 16.2467C12.8639 16.2467 12.7398 16.1945 12.6483 16.1016C12.5567 16.0088 12.5053 15.8829 12.5053 15.7515V15.7581ZM12.5053 13.9292V11.8163C12.5087 11.6855 12.5623 11.5613 12.6547 11.47C12.7471 11.3787 12.8709 11.3276 12.9998 11.3277C13.117 11.3266 13.2306 11.3689 13.3192 11.4467C13.4078 11.5245 13.4655 11.6324 13.4813 11.7503V13.8632C13.4822 13.9284 13.4702 13.9932 13.446 14.0537C13.4217 14.1142 13.3858 14.1691 13.3403 14.2153C13.2948 14.2615 13.2407 14.2978 13.1811 14.3224C13.1215 14.347 13.0576 14.3593 12.9933 14.3584C12.8755 14.3578 12.7619 14.3141 12.6734 14.2352C12.5849 14.1563 12.5275 14.0476 12.5118 13.9292H12.5053Z" fill="#FF4A33"/>
</svg>
